<?xml version="1.0" encoding="UTF-8" standalone="no"?>
<!-- Created with Inkscape (http://www.inkscape.org/) -->

<svg
   xmlns:dc="http://purl.org/dc/elements/1.1/"
   xmlns:cc="http://creativecommons.org/ns#"
   xmlns:rdf="http://www.w3.org/1999/02/22-rdf-syntax-ns#"
   xmlns:svg="http://www.w3.org/2000/svg"
   xmlns="http://www.w3.org/2000/svg"
   xmlns:sodipodi="http://sodipodi.sourceforge.net/DTD/sodipodi-0.dtd"
   xmlns:inkscape="http://www.inkscape.org/namespaces/inkscape"
   width="211mm"
   height="211mm"
   viewBox="0 0 211 211"
   version="1.1"
   id="svg3865"
   sodipodi:docname="roth.svg"
   inkscape:version="0.92.2 (5c3e80d, 2017-08-06)">
  <defs
     id="defs3859" />
  <sodipodi:namedview
     id="base"
     pagecolor="#ffffff"
     bordercolor="#666666"
     borderopacity="1.0"
     inkscape:pageopacity="0.0"
     inkscape:pageshadow="2"
     inkscape:zoom="0.98994949"
     inkscape:cx="553.36558"
     inkscape:cy="374.01108"
     inkscape:document-units="mm"
     inkscape:current-layer="layer1"
     showgrid="false"
     inkscape:window-width="1920"
     inkscape:window-height="1137"
     inkscape:window-x="1912"
     inkscape:window-y="-8"
     inkscape:window-maximized="1" />
  <metadata
     id="metadata3862">
    <rdf:RDF>
      <cc:Work
         rdf:about="">
        <dc:format>image/svg+xml</dc:format>
        <dc:type
           rdf:resource="http://purl.org/dc/dcmitype/StillImage" />
        <dc:title></dc:title>
      </cc:Work>
    </rdf:RDF>
  </metadata>
  <g
     inkscape:label="Layer 1"
     inkscape:groupmode="layer"
     id="layer1"
     transform="translate(0,-86)">
    <path
       style="fill:#000000;stroke-width:0.49504259"
       d="M 87.571044,295.27058 C 80.404199,293.78507 70.738656,290.95792 65.728391,288.88161 43.352873,279.609 24.632697,262.89888 12.337843,241.2238 3.5892994,225.80067 -1.0969062,202.80651 0.57358802,183.49926 2.8712135,156.94374 12.686313,135.29106 30.613205,117.23015 46.539439,101.18485 66.884661,91.073354 90.24895,87.591422 c 26.23325,-3.90949 52.21366,2.189554 75.43308,17.708338 13.53369,9.04528 24.93818,22.44329 33.35702,39.1878 20.0867,39.95111 12.69313,87.99179 -18.47176,120.0229 -14.89597,15.31001 -30.90756,24.42861 -51.39958,29.27209 -9.53436,2.25353 -13.66846,2.68957 -25.19602,2.65751 -9.385675,-0.0261 -11.670208,-0.18901 -16.400646,-1.16948 z m 33.996776,-4.41204 c 14.17093,-2.75146 21.50276,-5.16852 31.22693,-10.29448 26.58322,-14.01307 44.5494,-37.49877 50.82123,-66.43447 3.97579,-18.34261 3.41684,-34.87883 -1.74151,-51.52213 -7.24587,-23.37862 -18.0682,-38.51147 -38.67075,-54.0733 -10.63569,-8.03349 -24.43445,-13.611773 -41.6359,-16.83171 -7.67594,-1.436855 -23.197106,-1.784877 -30.731265,-0.689071 -11.326464,1.647382 -20.19687,4.412804 -30.979097,9.657991 -16.304751,7.93172 -28.537783,18.87531 -39.137262,35.01192 -10.8357466,16.49634 -16.6251024,35.78907 -16.6251024,55.40235 0,32.15314 14.1364834,60.57008 40.1835674,80.77637 11.391039,8.83674 28.257767,16.0607 43.710391,18.72106 13.083298,2.25247 22.978408,2.33363 33.578768,0.27547 z M 97.52803,287.04635 C 88.94873,286.24461 76.20818,283.23468 68.676419,280.23022 56.447285,275.35194 44.648317,267.09719 34.298802,256.17908 22.595957,243.83328 14.516006,228.06639 10.702384,210.134 9.4590234,204.28746 9.3470714,202.84668 9.3243304,192.39883 c -0.01965,-9.02809 0.166825,-12.44156 0.9048176,-16.56307 1.795098,-10.02519 5.414712,-20.74522 10.069612,-29.82267 6.91422,-13.4833 20.630519,-28.08778 33.930778,-36.1279 28.301193,-17.108313 64.040832,-19.046413 92.127292,-4.9959 10.94387,5.47477 16.59575,9.42763 24.69488,17.27135 9.06541,8.77952 14.67843,16.25623 19.84184,26.4299 3.777,7.44198 5.24967,11.2245 7.00742,17.9985 2.26358,8.72326 3.10286,15.41641 3.11244,24.82094 0.0303,29.77721 -12.6791,56.36803 -35.82704,74.95764 -3.95303,3.1746 -13.3036,9.28431 -17.19623,11.23608 -6.85987,3.43954 -19.20639,7.26093 -28.29349,8.75712 -5.72316,0.94232 -16.01502,1.26057 -22.16862,0.68553 z m 17.34143,-4.47563 c 1.63195,-0.6469 2.91197,-1.39867 2.84452,-1.67059 -0.18948,-0.76387 -6.1248,-2.87399 -7.7943,-2.77105 -5.17908,0.31934 -8.74581,0.17809 -9.29344,-0.36825 -0.47943,-0.47822 -0.30806,-1.17621 0.81343,-3.31286 2.73554,-5.21168 7.47305,-8.71508 12.68975,-9.38405 3.92525,-0.50337 4.24427,-0.6602 5.35564,-2.63267 1.62315,-2.88072 1.45592,-3.41774 -1.18729,-3.81315 -5.58743,-0.83578 -12.00037,0.93489 -16.39474,4.52669 -3.724675,3.04443 -9.237643,11.9538 -10.276226,16.60717 -0.27595,1.23634 -0.106784,1.39507 2.555029,2.39804 4.182624,1.57597 6.710577,1.93035 12.516017,1.75453 4.05411,-0.12278 5.86031,-0.41762 8.17161,-1.33381 z m -27.445495,-2.72803 c 0.920805,-1.10672 1.09887,-7.14787 0.318587,-10.8087 -0.696804,-3.26909 -0.592868,-3.22178 -4.71974,-2.14798 l -2.113568,0.54995 0.322221,3.13725 c 0.391855,3.81516 -0.05264,4.14484 -3.878461,2.87725 -4.715114,-1.56217 -9.785571,-7.68676 -11.684393,-14.11353 -0.821327,-2.77986 -0.850158,-2.80954 -3.017623,-3.10586 -3.937942,-0.53841 -4.528357,-0.42304 -4.528357,0.88476 0,2.04121 1.995507,7.82799 3.854108,11.17655 2.753683,4.96118 5.997237,7.8451 11.015857,9.79439 6.446305,2.50383 13.132254,3.31732 14.431369,1.75592 z m 48.270315,-2.34474 c 3.92119,-1.28305 6.73007,-2.90441 6.10748,-3.52544 -0.17665,-0.17622 -1.98891,-0.74666 -4.02704,-1.26746 -3.48655,-0.89093 -3.81886,-0.89876 -5.61923,-0.13231 -4.45999,1.89867 -13.65934,0.33767 -19.65272,-3.33474 -2.00032,-1.22568 -2.5459,-1.36579 -3.46965,-0.891 -1.5775,0.81082 -3.3266,2.49023 -3.3266,3.19411 0,1.02844 3.15539,3.4311 6.03944,4.59872 8.27804,3.35137 16.44173,3.81435 23.94832,1.35814 z m 19.6645,-7.636 c 4.83959,-2.31729 9.28156,-7.07173 10.5342,-11.27522 0.29178,-0.97914 0.0808,-1.07821 -2.99689,-1.40696 l -3.31077,-0.35366 -2.65645,2.97471 c -3.46943,3.88506 -5.75484,4.80081 -11.81696,4.73492 -2.73361,-0.0297 -6.17183,-0.46435 -8.87936,-1.12244 l -4.41838,-1.07394 -1.20494,1.12242 c -1.20062,1.1184 -2.59776,3.3954 -2.59776,4.23369 0,0.66186 8.71013,3.20081 12.39163,3.61209 1.77201,0.19793 5.11776,0.30999 7.43498,0.24902 3.58711,-0.0944 4.70464,-0.34623 7.5207,-1.69463 z m -29.11189,-1.67656 c 1.48595,-3.98237 3.76306,-6.98408 6.81924,-8.98918 4.72665,-3.10107 6.63651,-2.74549 6.26254,1.16603 -0.2242,2.34517 0.0201,2.49151 4.15801,2.49151 h 3.00249 l -0.28218,-2.3485 c -0.15531,-1.29167 -0.86513,-4.18404 -1.57762,-6.42746 l -1.2954,-4.07897 h -2.15672 c -9.24083,0 -21.90575,10.21096 -22.24659,17.93604 -0.0878,1.9922 -0.0611,2.02516 2.14148,2.63108 3.56265,0.98007 3.99503,0.78116 5.17475,-2.38055 z m -64.654607,2.39163 c 0,-0.10315 -0.550942,-1.38242 -1.224348,-2.84293 -1.048083,-2.27312 -1.62203,-2.86152 -3.986406,-4.08672 -3.153032,-1.63389 -6.331879,-4.96128 -7.84338,-8.20994 -1.514985,-3.25608 -1.476262,-10.28087 0.07288,-13.22573 0.607969,-1.15573 1.368299,-2.10129 1.68964,-2.10129 0.321341,0 1.631303,1.11244 2.911029,2.47211 2.299632,2.44325 2.362071,2.47208 5.353656,2.47208 1.664798,0 3.026896,-0.12912 3.026896,-0.28703 0,-0.1579 -0.799259,-1.48811 -1.776134,-2.95615 -2.140356,-3.21647 -8.760006,-9.50064 -10.454779,-9.92494 -3.402567,-0.85184 -8.607569,9.23006 -8.574935,16.60935 0.01686,3.67081 0.709487,6.45315 2.514396,10.0916 2.43667,4.91196 6.831866,8.76197 12.106578,10.6049 3.721697,1.30032 6.184874,1.85179 6.184874,1.38469 z m 14.242945,-2.7381 c 5.648582,-3.44935 12.810538,-4.73462 18.229537,-3.27145 l 3.195689,0.86286 1.620794,-1.35836 c 2.740902,-2.29711 3.073722,-3.03365 1.758482,-3.89151 -3.584055,-2.33772 -6.017933,-2.99352 -11.042342,-2.97535 -5.400997,0.0194 -7.926633,0.70126 -14.599824,3.94074 -1.906259,0.9254 -4.029419,1.8236 -4.718111,1.99602 -0.688711,0.17249 -1.252187,0.5736 -1.252187,0.89151 0,1.06872 3.22068,5.24785 4.044294,5.24785 0.221002,0 1.464647,-0.64906 2.763668,-1.44231 z m 3.177386,-9.96565 3.017755,-1.51953 -1.420978,-1.51096 c -2.226833,-2.36783 -6.199638,-4.70697 -10.428291,-6.14 -3.458375,-1.17201 -4.836021,-1.34144 -12.678052,-1.55929 l -8.798055,-0.24439 0.04946,2.16789 c 0.102849,4.51077 0.187825,4.59323 5.175535,5.01935 2.442289,0.20864 6.493271,0.46605 9.002179,0.57202 5.405248,0.22829 7.144084,0.73507 10.368716,3.02194 1.328115,0.94186 2.477604,1.71251 2.554393,1.71251 0.07681,0 1.497619,-0.68379 3.157397,-1.51954 z m 89.219116,-2.65485 c 1.81126,-0.38293 4.17108,-1.14297 5.24405,-1.689 2.88135,-1.46625 6.33952,-4.8725 8.29009,-8.16564 1.65943,-2.80156 4.06109,-9.05606 3.63907,-9.47701 -0.11315,-0.11287 -1.88689,0.39384 -3.94174,1.12589 -3.59244,1.27982 -3.75673,1.40777 -4.27169,3.32683 -1.92295,7.16637 -10.09957,11.42671 -18.51266,9.6458 -1.67518,-0.3546 -3.61074,-1.12945 -4.3012,-1.72188 l -1.25542,-1.07715 1.29657,-1.69561 c 0.7131,-0.93261 2.31988,-2.46044 3.57059,-3.39521 2.55162,-1.90705 2.86006,-2.65202 2.64135,-6.38 l -0.15324,-2.61164 -3.903,2.5446 c -5.80029,3.78153 -10.71912,9.2922 -10.71912,12.00884 0,1.85095 5.73375,5.50944 10.92581,6.97136 4.93484,1.38951 7.13271,1.50272 11.4505,0.58982 z m -48.12458,-1.67814 c 19.06057,-4.51653 34.58038,-17.08431 42.69076,-34.57052 4.81128,-10.37325 6.71127,-19.45859 6.21713,-29.72911 -1.3153,-27.33888 -18.60602,-50.28751 -44.18344,-58.64124 -14.27057,-4.66085 -29.535873,-4.23291 -43.198182,1.21101 -8.130344,3.23965 -14.479328,7.34383 -20.818832,13.45789 -21.200102,20.44623 -26.175054,52.8373 -11.833551,77.04622 3.569578,6.02555 6.773043,9.96794 12.277656,15.10962 11.677048,10.90714 24.583541,16.43795 40.730329,17.45414 6.36938,0.40086 12.7767,-0.0723 18.11813,-1.33801 z m -20.844279,-2.86349 c -15.447507,-1.9414 -27.285928,-7.78895 -37.284802,-18.41667 -8.091153,-8.60004 -13.148909,-18.25579 -15.570572,-29.72566 -1.203835,-5.70179 -1.201475,-16.52732 0.0057,-22.1481 5.269934,-24.55571 23.587896,-42.71818 47.789904,-47.38424 5.08172,-0.97973 14.654749,-1.11665 19.720749,-0.28204 21.31591,3.51174 39.2129,17.95605 46.66144,37.65954 2.46145,6.51125 3.17904,10.31391 3.45548,18.31104 0.31325,9.06198 -0.41649,14.25096 -3.12894,22.24893 -6.79361,20.03181 -22.86003,34.40468 -43.44461,38.86515 -3.51437,0.76155 -14.78623,1.30152 -18.203459,0.87205 z m 12.276969,-5.1427 c 33.22915,-4.15612 55.15975,-37.05121 45.97223,-68.95671 -8.34245,-28.97087 -38.57135,-45.821 -67.419023,-37.58059 -29.017724,8.28898 -45.952923,38.51321 -37.679078,67.24581 7.438449,25.83154 32.671942,42.6002 59.125871,39.29149 z m 15.49773,-13.30191 c -0.28221,-0.52597 -0.5131,-1.39214 -0.5131,-1.92479 0,-0.85671 -0.87658,-1.56866 -1.9314,-1.56866 -0.19984,0 -0.7356,0.77871 -1.19061,1.73046 -0.84677,1.77127 -1.17041,1.95369 -2.53761,1.43039 -0.55147,-0.21109 -0.78403,-0.94899 -0.78403,-2.48762 0,-2.82611 -1.01256,-3.28932 -3.01249,-1.37808 l -1.4663,1.40127 -1.00795,-1.00543 c -0.97606,-0.9736 -0.98034,-1.05339 -0.13544,-2.52174 0.72647,-1.26262 0.76398,-1.64666 0.22419,-2.29544 -0.58238,-0.69996 -0.82924,-0.7037 -2.42944,-0.0368 -1.65239,0.68867 -1.84935,0.67438 -2.72375,-0.19783 -0.92629,-0.92395 -0.91951,-0.96147 0.39221,-2.17471 2.01606,-1.86471 1.51777,-3.09453 -1.2538,-3.09453 -2.03959,0 -2.23035,-0.10707 -2.37207,-1.33137 -0.12289,-1.06126 0.1538,-1.4902 1.36308,-2.114 2.26616,-1.16893 2.04093,-2.63965 -0.46547,-3.03944 -1.77576,-0.28325 -1.98265,-0.46345 -1.98265,-1.72689 0,-1.13706 0.26437,-1.46843 1.36306,-1.70857 2.38056,-0.52032 2.60225,-0.6586 2.60225,-1.62309 0,-0.58679 -0.57294,-1.1811 -1.51308,-1.56955 -1.21663,-0.50269 -1.48368,-0.87768 -1.36308,-1.91406 0.13527,-1.16172 0.38231,-1.30376 2.50442,-1.43959 2.75917,-0.17659 3.07087,-1.02694 1.1207,-3.05736 -1.13107,-1.1776 -1.17229,-1.37193 -0.49553,-2.33571 0.71136,-1.01307 0.81084,-1.02279 2.73791,-0.26771 2.7421,1.07441 3.48589,0.35422 2.26711,-2.19522 -0.84016,-1.75738 -0.84015,-1.86386 4.8e-4,-2.47704 1.17966,-0.86042 1.38175,-0.82533 3.00537,0.52172 1.90699,1.58217 2.64027,1.18405 2.64027,-1.43346 0,-1.65156 0.23275,-2.29055 0.9795,-2.68919 0.83827,-0.44751 1.142,-0.27068 2.10658,1.22638 1.49785,2.32474 2.91359,2.1767 3.51409,-0.36746 0.35311,-1.49601 0.66374,-1.85409 1.60844,-1.85409 0.94654,0 1.2731,0.37886 1.70471,1.97768 0.68706,2.54517 1.99336,2.63205 3.41582,0.22721 0.89663,-1.51587 1.1689,-1.67919 2.03162,-1.21865 0.76947,0.41079 0.9962,1.03423 0.9962,2.73931 0,1.98616 0.11653,2.2075 1.16235,2.2075 0.63929,0 1.56605,-0.44497 2.05948,-0.98885 1.08465,-1.1955 1.88977,-1.25245 2.7689,-0.19583 0.55432,0.66625 0.52442,1.02821 -0.18716,2.26494 -0.46581,0.80959 -0.84692,1.65264 -0.84692,1.87342 0,0.80533 1.65677,1.00445 3.33142,0.40041 1.5366,-0.55426 1.78985,-0.51924 2.41526,0.33393 0.62451,0.85192 0.56021,1.09725 -0.60572,2.31118 -1.82949,1.90478 -1.30261,2.90037 1.53497,2.90037 1.23532,0 2.24605,0.20431 2.24605,0.45398 0,0.24968 0.13283,0.79935 0.29527,1.22149 0.20718,0.53859 -0.24264,1.02336 -1.50813,1.62532 -2.38738,1.13562 -2.29875,2.76413 0.17011,3.12667 0.92591,0.13604 1.90938,0.60632 2.18546,1.04524 0.70246,1.1168 0.0789,2.41572 -1.15985,2.41572 -1.42354,0 -2.95694,0.88106 -2.95694,1.69902 0,0.37147 0.77706,1.13273 1.72678,1.69167 1.48159,0.87196 1.66582,1.17729 1.29737,2.15013 -0.36766,0.97077 -0.72335,1.11123 -2.47291,0.9766 -2.63727,-0.20298 -3.11273,0.8116 -1.3562,2.89388 1.08415,1.28521 1.18655,1.66158 0.6745,2.47941 -0.72354,1.15565 -0.76774,1.15916 -2.98168,0.23643 -1.49468,-0.62294 -1.82917,-0.62806 -2.32217,-0.0355 -0.44306,0.53249 -0.39719,1.0371 0.19867,2.18648 1.00187,1.93254 0.98025,2.16623 -0.27263,2.94669 -0.92672,0.5773 -1.20273,0.50384 -2.39763,-0.63805 -1.89955,-1.81533 -3.11138,-1.27406 -2.9246,1.30623 0.0933,1.28991 -0.10323,2.09412 -0.58644,2.39896 -1.22307,0.77161 -1.70286,0.54362 -2.68528,-1.27603 -1.22114,-2.26183 -2.31676,-2.04005 -3.1692,0.64154 -0.73481,2.31155 -2.1248,2.83424 -3.03343,1.14069 z m 8.16105,-8.56119 c 3.16182,-1.62573 5.83896,-4.39753 7.28245,-7.53997 1.62698,-3.54187 1.59522,-9.40836 -0.0693,-12.81683 -4.776,-9.77951 -17.68937,-11.92332 -25.15725,-4.17646 -3.05084,3.16481 -4.28214,6.28592 -4.2895,10.87312 -0.006,3.18466 0.21668,4.20738 1.43211,6.60362 1.72637,3.40357 4.86937,6.2921 8.33881,7.66375 3.59811,1.42249 9.02991,1.15783 12.46274,-0.60723 z M 124.8337,212.87935 c -2.12359,-2.51739 -1.59565,-5.69165 1.18518,-7.12605 2.20632,-1.13807 3.87114,-0.92665 5.50036,0.69848 3.13756,3.12966 1.14687,7.94877 -3.28348,7.94877 -1.75751,0 -2.33766,-0.25942 -3.40206,-1.5212 z m -48.59918,16.50482 c -0.715575,-2.84382 -2.288354,-3.36774 -4.785478,-1.5941 -1.435198,1.01938 -1.463766,1.02017 -3.05052,0.085 -1.433324,-0.84481 -1.586343,-1.15076 -1.455262,-2.90972 0.190467,-2.55602 -0.963218,-3.68024 -3.606989,-3.51484 -1.679187,0.10501 -2.018607,-0.0714 -2.860916,-1.48659 l -0.955706,-1.60578 1.241171,-1.47131 c 1.611165,-1.90997 1.251475,-3.24124 -1.214868,-4.49631 -1.723512,-0.87707 -1.91898,-1.16933 -1.91898,-2.86917 0,-1.74219 0.154367,-1.95308 1.940804,-2.6531 2.434684,-0.95397 2.843025,-2.52459 1.144243,-4.40119 l -1.179987,-1.30349 1.015279,-1.98512 c 0.992836,-1.94122 1.056493,-1.97585 2.879087,-1.56582 2.6567,0.59768 3.808117,-0.49673 3.397322,-3.22914 -0.284773,-1.89433 -0.212124,-2.0406 1.459457,-2.93856 l 1.759162,-0.94497 1.54923,1.14252 c 2.03985,1.50433 3.890751,0.95526 4.553816,-1.35089 0.427992,-1.48858 0.611228,-1.60086 2.612411,-1.60086 1.979472,0 2.208699,0.13491 2.857039,1.68283 0.942216,2.24937 2.462821,2.69098 4.384948,1.27345 1.427142,-1.05248 1.568133,-1.06611 3.165229,-0.30644 1.523714,0.72478 1.671543,0.98724 1.671543,2.96746 0,2.6538 0.89748,3.52796 3.623007,3.52884 1.6858,5.1e-4 2.113624,0.22433 2.836674,1.4839 0.828466,1.44316 0.818818,1.52691 -0.356767,3.09769 -1.518038,2.02833 -1.158705,3.41567 1.131991,4.3704 1.557301,0.64904 1.687081,0.8708 1.687081,2.88303 0,2.04111 -0.10736,2.21527 -1.686762,2.73519 -2.240958,0.73774 -2.702822,2.45001 -1.20569,4.4699 1.066254,1.43857 1.072398,1.52289 0.238013,3.2682 -0.806003,1.68598 -0.964773,1.77487 -2.694597,1.50873 -2.681783,-0.4126 -3.695002,0.51826 -3.498053,3.21375 0.147623,2.02014 0.05377,2.19571 -1.665979,3.11841 l -1.822388,0.97774 -1.175284,-1.10135 c -1.971903,-1.84784 -3.845528,-1.39701 -4.669404,1.12353 -0.432826,1.32419 -0.726741,1.49917 -2.740532,1.63153 -2.106449,0.13847 -2.278744,0.0568 -2.603345,-1.23328 z m 5.900478,-14.47231 c 3.630856,-2.23836 4.048227,-6.60327 0.928897,-9.71475 -1.453276,-1.44962 -2.005454,-1.67383 -4.122582,-1.67383 -2.022878,0 -2.744147,0.26239 -4.181275,1.52104 -3.006759,2.63333 -2.991959,6.35702 0.03653,9.20609 2.081195,1.95791 4.833061,2.20594 7.338391,0.66145 z m 17.339473,-22.11758 c -0.368717,-1.90455 -0.67715,-2.404 -1.562023,-2.52948 -0.805648,-0.11418 -1.372421,0.28521 -2.104594,1.48326 -0.551131,0.90179 -1.067997,1.83434 -1.148609,2.07233 -0.08056,0.238 -0.885022,0.27091 -1.787598,0.0733 l -1.641026,-0.35953 0.328927,-2.62598 c 0.297344,-2.37393 0.230146,-2.65728 -0.700138,-2.95177 -0.72942,-0.23094 -1.588534,0.11623 -2.95052,1.19219 -1.910812,1.50961 -1.927897,1.51283 -3.082368,0.58034 -1.145235,-0.92504 -1.149301,-0.96198 -0.301596,-2.73517 1.043736,-2.18324 1.075359,-2.94725 0.153618,-3.71034 -0.553809,-0.45845 -1.13645,-0.36505 -2.706418,0.43388 -2.48253,1.26332 -2.34538,1.27328 -3.341157,-0.24264 -0.805274,-1.22593 -0.78551,-1.30464 0.716194,-2.8501 1.168072,-1.20212 1.469892,-1.87329 1.23881,-2.75478 -0.280632,-1.07042 -0.496053,-1.14292 -2.642516,-0.88934 -2.579216,0.3047 -3.463827,-0.19418 -3.463827,-1.95346 0,-0.77492 0.592906,-1.43793 1.982656,-2.21706 2.850256,-1.5979 2.56597,-3.09064 -0.718236,-3.77128 -2.256488,-0.46766 -3.262325,-1.67835 -2.454991,-2.955 0.296556,-0.46896 1.401308,-1.03132 2.454991,-1.24969 3.284206,-0.68065 3.568492,-2.17338 0.718236,-3.77131 -1.444508,-0.80981 -1.982656,-1.43051 -1.982656,-2.28675 0,-1.56025 0.727715,-1.93107 3.501518,-1.78421 3.343911,0.17696 3.779342,-1.60082 1.005369,-4.10492 -1.285308,-1.16028 -1.307057,-1.86952 -0.09104,-2.96729 0.871628,-0.78683 1.065167,-0.79286 2.453717,-0.0766 3.241249,1.6719 4.801158,0.51287 3.361821,-2.49788 -1.091002,-2.28212 -1.028206,-2.89585 0.360926,-3.52718 1.003439,-0.45607 1.436732,-0.31848 2.971631,0.94353 1.288306,1.05926 2.092024,1.38402 2.839541,1.14737 0.926218,-0.29324 1.005575,-0.57651 0.710836,-2.53703 -0.373346,-2.48343 0.228608,-3.62927 1.90551,-3.62716 0.71078,9.9e-4 1.37804,0.60532 2.046838,1.85408 0.740248,1.38212 1.306833,1.85274 2.230504,1.85274 1.08287,0 1.295256,-0.2946 1.69303,-2.34849 0.4334,-2.23789 0.532149,-2.3485 2.097129,-2.3485 1.35275,0 1.68766,0.21794 1.89957,1.23605 0.14145,0.67983 0.37307,1.79227 0.51456,2.47211 0.41668,2.00188 2.24261,1.62368 3.59894,-0.74545 1.11434,-1.94643 2.14784,-2.39295 3.52509,-1.52301 0.49148,0.31045 0.617,1.0803 0.43652,2.67746 -0.40367,3.57225 1.34646,4.40197 3.83031,1.81589 1.66469,-1.73318 1.63516,-1.72788 3.15005,-0.56567 l 1.1674,0.89558 -1.08604,2.12343 c -0.99251,1.94062 -1.01818,2.19112 -0.29819,2.90931 0.68196,0.68021 1.00412,0.69772 2.39698,0.13024 2.6093,-1.06322 3.49646,-0.94265 4.03237,0.54801 0.42352,1.17803 0.28733,1.53048 -1.10399,2.85676 -1.35942,1.29587 -1.50759,1.66116 -1.03274,2.54614 0.47874,0.89232 0.89102,1.00098 3.02253,0.79668 2.25935,-0.21655 2.50682,-0.13511 2.9253,0.96279 0.65988,1.7313 0.64162,1.76717 -1.52934,3.00383 -1.43052,0.81487 -1.97884,1.45078 -1.97884,2.29501 0,1.00333 0.33158,1.22823 2.3544,1.59686 2.27545,0.41466 2.35441,0.48677 2.35441,2.15 0,1.66326 -0.0789,1.73535 -2.35441,2.15003 -2.03737,0.37129 -2.3544,0.58927 -2.3544,1.61889 0,1.05649 1.79013,2.66673 3.66792,3.29933 0.25756,0.0867 0.23619,0.76672 -0.0505,1.60884 -0.47357,1.39069 -0.61379,1.45131 -3.01372,1.30291 -2.08223,-0.12875 -2.60625,0.0112 -3.03331,0.80656 -0.42182,0.78623 -0.24685,1.24336 0.95672,2.49964 1.64962,1.72182 1.78945,2.40894 0.77251,3.79619 -0.68967,0.9408 -0.7347,0.93891 -2.92468,-0.1224 -2.15732,-1.04547 -2.24912,-1.05048 -3.05119,-0.1665 -0.77454,0.85372 -0.7605,1.04141 0.2217,2.96182 l 1.04866,2.05037 -1.13843,0.94676 c -1.43909,1.19682 -1.53303,1.19488 -2.66697,-0.0549 -1.43132,-1.5776 -2.55336,-2.03674 -3.60515,-1.47526 -0.76026,0.40586 -0.87995,0.91285 -0.6874,2.91163 0.21364,2.21789 0.13525,2.44633 -0.93821,2.73295 -1.76669,0.47171 -1.77074,0.46947 -2.96573,-1.65143 -0.79481,-1.41062 -1.44074,-1.97767 -2.25278,-1.97767 -1.14448,0 -1.43831,0.57711 -1.76206,3.46094 -0.1154,1.02854 -0.43611,1.26094 -1.90983,1.3843 -1.751679,0.14668 -1.776059,0.12221 -2.230499,-2.2249 z m 7.667359,-7.27036 c 0.57366,-0.51802 1.04302,-1.21395 1.04302,-1.54648 0,-0.84703 -1.18034,-3.42664 -3.15978,-6.90563 -1.53797,-2.70311 -1.83574,-2.96652 -3.35328,-2.96652 -1.55529,0 -1.820979,0.26154 -4.017906,3.95535 -4.061867,6.82946 -3.057847,8.77366 4.407366,8.5345 3.15037,-0.10092 4.26674,-0.33631 5.08058,-1.07122 z m -16.446866,-4.99734 c 1.359982,-0.95018 5.316601,-8.05375 5.217424,-9.36717 -0.129826,-1.71819 -1.528735,-2.24883 -5.790153,-2.19625 -4.965847,0.0613 -6.308594,0.42232 -7.044214,1.89415 -1.39168,2.7844 2.967904,10.29394 6.037327,10.39954 0.280126,0.009 0.990944,-0.31898 1.579616,-0.73027 z m 26.217356,-0.79215 c 0.57454,-0.53472 1.63404,-2.17288 2.35441,-3.64037 2.71552,-5.53189 1.32731,-7.1802 -6.0472,-7.1802 -4.19194,0 -6.02602,0.77952 -6.02602,2.56114 0,1.15334 4.14087,8.20113 5.38485,9.16505 1.00949,0.7822 2.95783,0.37509 4.33396,-0.90562 z m -12.42244,-10.05646 c 1.5806,-1.57663 1.58104,-3.68844 0.001,-5.38891 -1.9975,-2.14989 -5.208629,-1.66211 -6.634203,1.00776 -0.853194,1.5979 -0.716362,2.38667 0.706602,4.07352 1.658351,1.96591 4.135121,2.09445 5.926461,0.30763 z m -9.154587,-5.54762 c 1.030847,-1.02928 0.604934,-2.79922 -1.567496,-6.5137 -2.559488,-4.37631 -3.831534,-5.38104 -5.788842,-4.57233 -1.605563,0.66338 -4.302932,4.4763 -4.983345,7.04433 -0.589535,2.22505 0.137132,3.93018 1.89693,4.45124 1.90358,0.56363 9.777346,0.25485 10.442753,-0.40954 z m 22.882917,0.3088 c 3.05665,-0.84675 3.0236,-4.06973 -0.088,-8.58092 -3.19882,-4.63764 -4.95457,-4.34944 -8.42591,1.3831 -2.78567,4.60027 -3.03181,5.81382 -1.40919,6.94751 1.29444,0.90437 7.03893,1.04926 9.92308,0.25031 z m -15.18435,-4.80324 c 0.81451,-0.53874 4.68105,-7.5371 4.97547,-9.00549 0.42618,-2.12549 -1.27113,-3.17763 -5.46701,-3.38897 -4.873281,-0.24547 -7.244776,0.71121 -7.244776,2.92262 0,1.45075 1.806427,5.20845 4.081627,8.49058 0.917999,1.32425 2.495699,1.74786 3.654689,0.98126 z M 39.531737,249.628 c -0.232487,-2.6526 -0.574117,-3.9839 -1.11011,-4.32619 -2.323517,-1.48371 -4.20353,-3.59078 -5.434155,-6.09046 -1.847941,-3.75361 -1.768434,-7.66921 0.318063,-15.66403 l 1.548406,-5.93304 -2.319434,-2.12586 c -3.278699,-3.00504 -4.12054,-2.74412 -5.263658,1.63144 -1.238568,4.74091 -2.352574,12.24418 -2.348996,15.82145 0.0075,7.80291 4.816707,16.18489 11.010237,19.19095 3.976253,1.92987 3.987605,1.92196 3.599647,-2.50426 z m 126.720583,-1.61928 c 0.99517,-0.27573 1.95054,-0.86816 2.12303,-1.31652 0.17253,-0.44837 0.52682,-4.15577 0.78743,-8.23868 0.55519,-8.6982 1.20591,-12.68722 2.47421,-15.16701 0.902,-1.76363 0.8999,-1.86292 -0.11072,-5.21831 -0.56664,-1.88124 -1.11055,-3.51403 -1.20868,-3.62841 -0.0982,-0.11437 -0.75346,0.33061 -1.45624,0.98884 -1.78919,1.67576 -4.4158,7.42931 -5.39922,11.82683 -0.88025,3.93626 -2.05104,19.25797 -1.5676,20.51465 0.33311,0.86591 1.80317,0.94639 4.35783,0.23861 z m 10.95105,-11.3269 c 5.03331,-1.28409 8.4361,-3.08227 11.36923,-6.00806 4.26183,-4.25111 7.60733,-13.2299 7.24427,-19.44247 l -0.14706,-2.51659 -2.47831,-0.64771 c -1.3631,-0.35625 -4.9101,-0.77872 -7.88227,-0.93882 l -5.40394,-0.29111 0.27033,2.97376 c 0.43059,4.73683 0.69345,4.99293 4.53639,4.42005 4.16782,-0.62131 4.84248,-0.17342 4.18678,2.77963 -0.72059,3.24535 -2.26521,6.04392 -4.68989,8.49722 -2.52376,2.55354 -4.91942,3.90813 -8.42301,4.76263 -1.33155,0.32478 -3.03441,0.89743 -3.7841,1.27261 -1.23772,0.61937 -1.36307,0.93103 -1.36307,3.38873 0,2.64386 0.0326,2.70661 1.4077,2.70661 0.77425,0 3.09488,-0.43042 5.15697,-0.95648 z M 38.151841,231.63488 c 2.123909,-0.31065 5.032671,-1.07711 6.463897,-1.70327 3.112474,-1.36168 3.185479,-1.77233 1.347074,-7.57727 -2.644335,-8.3498 -8.769224,-15.01442 -17.21366,-18.73054 l -2.359711,-1.03842 -0.799896,1.21772 c -0.439926,0.66975 -0.902595,2.1601 -1.028131,3.31187 -0.228047,2.09221 -0.226117,2.09501 2.07211,3.01982 5.251894,2.11336 10.671174,7.32933 12.454559,11.98731 1.019062,2.66171 0.719696,3.094 -2.56687,3.70646 -1.296286,0.24157 -2.42039,0.50257 -2.498024,0.57999 -0.07755,0.0774 -0.340993,1.4121 -0.585281,2.96596 -0.511152,3.25138 -0.873577,3.0776 4.713933,2.26037 z M 24.51119,224.41639 c 0.503901,-2.70278 0.455231,-3.25326 -0.479137,-5.41982 -2.886075,-6.69201 -1.242127,-15.58603 3.911752,-21.16328 l 2.128236,-2.30306 -1.146603,-2.15594 c -0.630617,-1.18576 -1.593255,-2.55778 -2.139177,-3.04896 -0.969044,-0.87183 -1.039446,-0.84026 -2.968354,1.33186 -3.056497,3.44189 -5.580579,7.51718 -6.626506,10.69899 -1.328321,4.04087 -1.352788,14.11277 -0.04328,17.8595 0.994185,2.84476 5.614712,8.39361 6.365619,7.64456 0.240168,-0.23954 0.689049,-1.78929 0.99752,-3.44385 z m 155.91696,2.37733 c 1.10416,-0.79783 2.13436,-1.65531 2.28939,-1.9055 0.15493,-0.25015 -0.39706,-2.21164 -1.2268,-4.35883 -0.82976,-2.14718 -1.8397,-5.12765 -2.24432,-6.62328 -0.93134,-3.44262 -0.89401,-9.47467 0.0789,-12.7425 l 0.74985,-2.51867 -2.51132,-2.50503 c -1.38124,-1.37776 -2.6246,-2.50503 -2.76299,-2.50503 -0.7865,0 -2.71009,5.80293 -3.23689,9.76481 -0.77875,5.85678 -0.0296,12.0737 2.09687,17.40015 1.55008,3.88279 3.62911,7.44447 4.34554,7.44447 0.22784,0 1.31764,-0.65276 2.42179,-1.45059 z M 38.642911,203.7705 c 1.143156,-6.67918 -1.567346,-13.40133 -7.99222,-19.82111 -4.421349,-4.41784 -10.094585,-7.70125 -13.491531,-7.80829 l -1.845351,-0.0581 -1.468715,4.44978 c -2.375698,7.19767 -2.091758,14.96155 0.713803,19.51785 l 1.058301,1.7187 1.661484,-3.28742 c 1.478023,-2.92441 1.600373,-3.46226 1.108067,-4.87092 -0.416921,-1.19298 -0.39416,-2.60464 0.09235,-5.72399 0.582302,-3.73376 0.752312,-4.14049 1.730648,-4.14049 2.348359,0 8.623512,5.95726 10.629792,10.09129 1.042218,2.14751 1.455149,6.52776 0.807315,8.56376 -0.24339,0.76492 0.07906,1.13843 1.560302,1.80779 1.026874,0.46401 2.42468,1.26619 3.106216,1.78261 1.526375,1.15655 1.795336,0.9001 2.329568,-2.22142 z m 158.932529,-4.07898 c 1.63883,-5.21015 2.04672,-9.28199 1.27459,-12.7236 -0.67127,-2.99201 -3.34303,-8.73022 -4.1916,-9.0024 -0.28365,-0.091 -1.21623,1.53213 -2.07241,3.60688 -1.17342,2.84356 -1.4488,4.05534 -1.1185,4.92194 0.24101,0.63229 0.59054,2.82666 0.77675,4.87642 0.2825,3.10962 0.21225,3.77516 -0.42431,4.01879 -2.0388,0.78042 -9.17569,-5.01894 -11.8946,-9.6654 -0.71606,-1.22369 -1.70887,-3.78232 -2.20625,-5.68582 -0.86163,-3.2975 -1.03263,-3.54781 -3.62062,-5.29993 -1.49397,-1.01146 -2.88359,-1.84579 -3.08805,-1.85409 -0.6036,-0.0245 -0.42625,4.06359 0.35244,8.12315 1.49426,7.79019 6.5541,14.81929 13.16009,18.28192 3.59964,1.88683 9.48206,4.13101 11.00136,4.19711 0.63087,0.0275 1.15215,-0.93697 2.05111,-3.79497 z m -10.46273,-11.61887 c 5.47318,-7.17324 7.66208,-16.79872 5.59357,-24.5974 -1.37596,-5.18767 -6.31618,-13.34935 -8.08029,-13.34935 -0.27563,0 -0.66108,1.80215 -0.85654,4.00479 -0.33471,3.7715 -0.27384,4.1656 1.0447,6.76512 1.15506,2.27716 1.43406,3.54502 1.59395,7.24326 0.26773,6.19199 -0.59883,8.58425 -5.55778,15.3434 -0.51584,0.70308 3.39492,6.19704 4.41123,6.19704 0.34383,0 1.17684,-0.72308 1.85116,-1.60686 z M 37.489096,185.73809 c 0.433238,-1.08008 1.16899,-3.89937 1.634993,-6.26509 0.799372,-4.05824 0.799316,-4.53363 -8.43e-4,-8.41121 -0.972772,-4.71397 -4.077134,-14.51406 -4.993649,-15.76431 -0.785452,-1.07148 -1.954198,-0.70466 -4.408759,1.38369 l -1.883647,1.60266 1.208649,4.20257 c 2.868278,9.97316 3.512815,14.59847 2.598549,18.64751 -0.322859,1.4298 -0.123831,1.84078 1.974956,4.07897 1.283697,1.36893 2.502294,2.48896 2.708011,2.48896 0.205715,0 0.728501,-0.8837 1.16174,-1.96375 z M 184.2821,174.80907 c 0.45755,-1.37408 0.75341,-2.55882 0.65748,-2.63274 -0.0959,-0.074 -1.49043,-0.87366 -3.09888,-1.77719 -5.41474,-3.04162 -11.67173,-9.79857 -13.2467,-14.3052 -0.7039,-2.01413 -0.36298,-2.27548 3.54343,-2.71634 3.24715,-0.36645 3.64987,-0.96295 3.02989,-4.48776 l -0.34786,-1.97769 -3.08035,0.0478 c -2.50452,0.0389 -3.78713,0.3962 -6.86139,1.91175 l -3.78107,1.864 0.27266,2.29621 c 0.90152,7.5929 6.95315,16.28187 15.09368,21.67169 2.68732,1.77926 6.03233,3.1925 6.65206,2.81045 0.18434,-0.11361 0.70951,-1.33085 1.16705,-2.70492 z m -154.491835,-1.386 c 0.548601,-0.34684 0.515705,-0.94736 -0.189229,-3.45337 l -0.853307,-3.03351 h -2.972026 -2.972027 l 0.324321,-2.02307 c 0.95046,-5.9289 6.721954,-11.21002 14.497462,-13.26567 2.455441,-0.64916 2.751323,-1.25686 2.334476,-4.79461 l -0.318062,-2.69947 -2.283839,0.31834 c -5.83298,0.81308 -12.299293,3.97888 -15.623289,7.64891 -3.653039,4.03331 -5.203056,8.38241 -5.425763,15.22378 -0.184528,5.66669 -0.596822,5.07166 4.143076,5.97857 2.961873,0.56669 8.506202,0.62613 9.338207,0.10016 z m 15.607703,-12.06346 c 1.888838,-3.97045 2.315687,-7.22875 2.315687,-17.67642 v -10.19032 l -2.502743,0.32027 c -4.588399,0.58716 -5.293764,2.59449 -4.331521,12.32672 0.514618,5.20492 0.12664,7.58324 -1.892003,11.5959 -1.199563,2.38462 -1.205296,2.45731 -0.408902,5.19143 1.457416,5.00353 1.537203,5.05249 3.93307,2.41279 1.147521,-1.26427 2.446393,-3.05545 2.886412,-3.98037 z m 135.379832,2.73365 c 0.44806,-1.29167 1.02346,-4.12841 1.27866,-6.30385 1.33362,-11.36835 1.09983,-14.06134 -1.71689,-19.77683 -2.79416,-5.66971 -7.44524,-10.20477 -11.24286,-10.96238 l -1.5888,-0.31695 0.3313,3.55566 c 0.32926,3.53382 0.34904,3.573 3.22113,6.38129 3.81176,3.72711 5.03068,6.84925 5.03068,12.88568 0,2.79069 -0.376,5.82025 -1.05456,8.49677 l -1.05452,4.15967 2.34165,2.11473 c 1.28792,1.1631 2.6337,2.11471 2.99062,2.11471 0.35691,0 1.01554,-1.05682 1.46359,-2.3485 z M 53.909471,147.71525 c 1.090476,-0.4981 3.150877,-1.83112 4.578713,-2.96226 3.03293,-2.40275 8.538067,-8.85179 8.548933,-10.01478 0.01124,-1.28709 -4.246619,-4.83894 -7.77858,-6.48759 -2.735643,-1.27696 -4.015874,-1.55444 -8.019684,-1.73828 -10.658922,-0.48943 -19.19682,3.84538 -22.8522,11.60231 -1.140776,2.42079 -1.975144,8.06782 -1.188042,8.04068 0.242322,-0.008 1.619276,-0.50895 3.059888,-1.11244 2.442365,-1.02313 2.743679,-1.34537 4.460989,-4.77037 1.430627,-2.85326 2.355496,-4.02324 4.143677,-5.24177 4.315859,-2.941 12.240637,-4.0335 16.729389,-2.3063 3.591516,1.38196 3.711824,2.23703 0.705534,5.01439 -1.412398,1.30484 -3.586307,2.79021 -4.83087,3.30079 l -2.262857,0.92832 -0.0018,3.33734 c -0.0018,3.31419 0.0075,3.33727 1.361218,3.32649 0.749689,-0.006 2.255269,-0.41842 3.345747,-0.91653 z m 107.709089,-1.59944 c 3.97824,-3.87969 6.16762,-11.68414 5.07902,-18.10504 -1.38443,-8.16576 -9.177,-15.48337 -17.33541,-16.27878 -1.7655,-0.17212 -3.05653,-0.11421 -2.95071,0.13236 0.10342,0.24111 0.94012,1.7282 1.85924,3.30466 1.3846,2.37485 2.15929,3.11209 4.51841,4.29999 3.23493,1.62888 5.09831,3.6031 6.76918,7.17192 1.73335,3.70224 1.49516,10.12445 -0.47515,12.81226 -0.61138,0.83399 -0.77,0.84378 -2.14843,0.13267 -1.59205,-0.82122 -5.1313,-4.46505 -5.1313,-5.28293 0,-0.28077 -1.49368,-0.49299 -3.46965,-0.49299 -2.46097,0 -3.46967,0.18126 -3.46967,0.62329 0,0.34283 0.99823,2.10759 2.2183,3.9217 2.23485,3.32305 6.59382,6.95902 10.23045,8.53364 2.31906,1.00412 2.52076,0.96792 4.30572,-0.77284 z M 75.856453,131.33354 c 6.077868,-3.03441 11.8855,-9.87375 13.982264,-16.46611 0.733691,-2.30674 0.03991,-3.30513 -2.989542,-4.30244 -2.306882,-0.75943 -2.45694,-0.64868 -3.694478,2.72657 -0.498524,1.35966 -1.401944,3.2615 -2.007609,4.22632 -1.186262,1.88971 -5.690827,6.51201 -7.57721,7.77526 -1.3742,0.92026 -1.836363,0.44844 -2.312108,-2.36038 -0.45984,-2.71493 -0.91258,-3.10537 -3.886255,-3.35134 l -2.738322,-0.22652 -0.32164,1.71021 c -0.816514,4.34138 3.514163,12.25048 6.707829,12.25048 0.476907,0 2.653589,-0.89192 4.837071,-1.98205 z m 83.272627,-1.45079 c -0.12945,-1.34419 -0.62792,-3.04151 -1.10764,-3.77182 l -0.8722,-1.32783 -9.06666,0.35492 c -6.33988,0.24818 -9.37638,0.18957 -10.09648,-0.19483 -0.71841,-0.38353 -1.29557,-0.39517 -1.90866,-0.0385 -0.48335,0.28116 -2.74609,0.9437 -5.02832,1.47225 -2.28224,0.52858 -4.24344,1.05474 -4.35824,1.16925 -0.39672,0.39573 3.46559,2.36758 6.97173,3.55931 3.3036,1.12289 4.19662,1.19677 14.61028,1.20864 l 11.09161,0.0131 z m -28.98071,-4.735 c 4.56403,-1.23332 10.25473,-4.10882 10.25473,-5.18167 0,-1.42093 -3.14714,-5.20406 -4.25121,-5.11033 -0.5243,0.0445 -2.84919,0.86789 -5.16643,1.82973 -7.90075,3.27945 -13.74592,4.11194 -17.59815,2.50641 -1.80252,-0.75123 -1.89673,-0.73799 -3.15845,0.44402 -0.71529,0.67009 -2.07066,1.67766 -3.01196,2.23904 l -1.71147,1.02069 2.79018,1.27418 c 1.5346,0.70079 3.75455,1.47872 4.93327,1.72875 3.02249,0.64112 13.487,0.17678 16.91949,-0.75082 z m -30.00383,-1.3418 c 3.47752,-1.41255 7.43625,-3.70652 10.92144,-6.32859 3.61574,-2.7203 6.40343,-8.10493 7.32597,-14.15063 0.38425,-2.51811 0.0687,-2.73339 -5.72087,-3.903568 -5.65715,-1.143406 -13.991033,-0.804356 -17.993119,0.732018 -1.567533,0.60177 -2.850069,1.25288 -2.850069,1.44691 0,0.19402 1.415977,1.04927 3.146606,1.90054 2.960261,1.4561 3.384844,1.53149 7.168752,1.27278 4.73618,-0.32381 8.51992,0.4895 8.51992,1.83133 0,2.72546 -5.78488,8.03772 -10.785449,9.90428 -3.301613,1.23239 -7.85125,2.15377 -8.814468,1.78508 -0.428948,-0.1642 -1.294638,0.86541 -2.429233,2.88915 -0.969531,1.72932 -1.762796,3.25863 -1.762796,3.39846 0,0.51484 1.838312,0.69833 5.947986,0.59368 3.197376,-0.0815 4.963506,-0.41206 7.32533,-1.37144 z m -50.876127,0.61007 c 0.921946,0 2.085278,-0.6028 3.332576,-1.72681 2.739071,-2.46837 6.692074,-4.12403 10.743112,-4.49959 3.398146,-0.31503 4.363236,-0.15756 11.526729,1.88075 2.0693,0.5888 2.158884,0.56578 3.354177,-0.86203 1.78685,-2.13444 2.844074,-4.2386 2.368197,-4.71329 -0.791335,-0.78935 -9.360818,-2.51303 -13.887826,-2.79341 -5.509596,-0.34125 -9.541131,0.36681 -13.968138,2.45322 -4.599002,2.16746 -8.001699,5.74965 -9.231219,9.71818 -0.361299,1.16616 -0.325612,1.18169 1.989045,0.86523 1.296323,-0.17715 2.99432,-0.32225 3.773347,-0.32225 z m 98.741027,-0.81944 c 1.79941,-0.29654 1.88983,-0.39578 1.61399,-1.77154 -0.70183,-3.5003 -3.45779,-8.06776 -6.9441,-11.50845 -4.11499,-4.06116 -6.87596,-5.64313 -12.87545,-7.37735 -6.67137,-1.92843 -6.90115,-1.87628 -8.03367,1.82357 -0.90584,2.95928 -1.38118,12.21473 -0.66406,12.93005 0.15492,0.15461 1.55678,0.0144 3.11505,-0.31167 3.24026,-0.67794 3.49752,-1.11267 3.11149,-5.25803 -0.18697,-2.00832 -0.0738,-2.66217 0.49884,-2.88136 1.40561,-0.53804 7.50302,2.29901 9.86747,4.59123 2.18056,2.11394 5.18123,7.45473 5.18204,9.22334 4.3e-4,0.94874 1.61652,1.11896 5.1284,0.54021 z m -46.21372,-9.63227 c 1.60571,-0.85368 2.91946,-1.73808 2.91946,-1.96533 0,-0.82915 -6.296076,-5.43001 -10.01532,-7.31869 -2.100734,-1.06677 -5.111895,-2.20751 -6.691475,-2.53496 -4.095549,-0.84901 -10.314388,-0.3729 -13.003533,0.99555 -2.414133,1.22851 -6.968904,5.27014 -6.968904,6.18379 0,0.34837 1.449659,0.85321 3.499008,1.21853 3.141417,0.55999 3.59397,0.53802 4.428168,-0.21504 1.225341,-1.10613 4.308383,-2.17922 6.338848,-2.20631 2.721312,-0.0363 7.410535,1.85008 11.66993,4.69461 2.223648,1.485 4.236784,2.7 4.473673,2.7 0.236888,0 1.744455,-0.69847 3.350145,-1.55215 z"
       id="path3878"
       inkscape:connector-curvature="0" />
  </g>
</svg>
